# xmcd
#
# Track frame offsets:
#	150
#	24586
#	52365
#	69216
#	98798
#	118489
#	158000
#	181604
#	209549
#	245080
#	263969
#
# Disc length: 4599 seconds
#
# Revision: 1
# Processed by: cddbd v1.5.2PL0 Copyright (c) Steve Scherf et al.
# Submitted via: audiograbber 1.83.01
#
DISCID=9f11f50b
DTITLE=Chasin The Train - NYE 97
DYEAR=1997
DGENRE=Country Blues
TTITLE0=Bourgeois Blues
TTITLE1=Further On Up The Road
TTITLE2=Man Smart Woman Smarter
TTITLE3=New Delhi Freight Train
TTITLE4=Wanna B Goode
TTITLE5=Dixie Chicken
TTITLE6=Mercury Blues
TTITLE7=Angel From Montgomery
TTITLE8=Crazy Bout an Automobile
TTITLE9=Fever
TTITLE10=Two Trains
EXTD=Kevin Bennett vocals and guitar, Kirk Lorange guitar and vocals, Ian Lees Ba
EXTD=ss, Mark Meyer drums. 
EXTT0=
EXTT1=
EXTT2=
EXTT3=
EXTT4=
EXTT5=
EXTT6=
EXTT7=
EXTT8=
EXTT9=
EXTT10=
PLAYORDER=
